<svg version="1.1" xmlns="http://www.w3.org/2000/svg" width="50" height="50">
  <path d="M0 0 C0.66 -0.0103125 1.32 -0.020625 2 -0.03125 C4.91007786 0.74173943 6.09407191 2.20341319 8 4.5 C8.48101807 6.95513916 8.48101807 6.95513916 8.45410156 9.72753906 C8.45379944 10.76831604 8.45349731 11.80909302 8.45318604 12.88140869 C8.43254089 13.99820007 8.41189575 15.11499146 8.390625 16.265625 C8.38496521 17.41415955 8.37930542 18.56269409 8.37347412 19.74603271 C8.35108331 23.41444574 8.30087942 27.08188217 8.25 30.75 C8.22993861 33.23696506 8.21168722 35.72394543 8.1953125 38.2109375 C8.15120955 44.30762489 8.08426949 50.40374267 8 56.5 C8.68599116 56.49539104 9.37198233 56.49078207 10.0787611 56.48603344 C26.77086279 56.37560908 43.46284879 56.29287032 60.15523052 56.24093914 C68.22756251 56.21515801 76.29965068 56.18000954 84.37182617 56.12280273 C91.40759961 56.07296459 98.44319648 56.04070831 105.47914153 56.02955753 C109.20468206 56.02303933 112.92971744 56.00772264 116.65509605 55.97134972 C120.81415584 55.93107194 124.97233763 55.93005081 129.1315918 55.93237305 C130.36661438 55.91439667 131.60163696 55.89642029 132.87408447 55.87789917 C141.16257764 55.92812042 141.16257764 55.92812042 145.26483154 58.72956848 C147.07401239 61.61817081 147.62718799 63.02955795 147.63110352 66.39453125 C147.64363663 67.33901123 147.65616974 68.28349121 147.66908264 69.2565918 C147.64919533 70.76926636 147.64919533 70.76926636 147.62890625 72.3125 C147.63131821 73.35897705 147.63373016 74.4054541 147.63621521 75.48364258 C147.63523724 77.69258418 147.62185568 79.90155044 147.59692383 82.11035156 C147.56261701 85.4884785 147.5762684 88.86398895 147.59570312 92.2421875 C147.58880449 94.39063612 147.57913196 96.53907799 147.56640625 98.6875 C147.57136612 99.69594971 147.57632599 100.70439941 147.58143616 101.7434082 C147.50705623 106.17943179 147.4352826 108.78535776 145.08959961 112.63647461 C142.83165078 114.65013548 141.97923058 115.16141977 139 115.0625 C135.9627917 114.87020003 135.09529911 114.57086344 132.5625 112.6875 C124.86108119 101.90551366 130 83.93167383 130 73.5 C44.2 73.5 -41.6 73.5 -130 73.5 C-130 84.72 -130 95.94 -130 107.5 C-133 113.5 -133 113.5 -135 114.5 C-140.78551532 115.05988858 -140.78551532 115.05988858 -143 114.5 C-145.46020087 112.31831785 -146.82957957 110.50968955 -147.38378906 107.22616577 C-147.54672388 104.37297909 -147.58046208 101.54535716 -147.56640625 98.6875 C-147.57260483 97.64102295 -147.57880341 96.5945459 -147.58518982 95.51635742 C-147.59228254 93.30746388 -147.5891236 91.09851682 -147.57641602 88.88964844 C-147.56254668 85.51136921 -147.59663592 82.13585805 -147.63476562 78.7578125 C-147.63571681 76.60937432 -147.63385803 74.46093268 -147.62890625 72.3125 C-147.64216446 71.30405029 -147.65542267 70.29560059 -147.66908264 69.2565918 C-147.65654953 68.31211182 -147.64401642 67.36763184 -147.63110352 66.39453125 C-147.63014175 65.56800049 -147.62917999 64.74146973 -147.62818909 63.88989258 C-146.60807845 60.00896742 -145.33792641 58.7794853 -142 56.5 C-137.71205935 55.77077135 -133.47118903 55.86920801 -129.1315918 55.93237305 C-127.82388321 55.93164291 -126.51617462 55.93091278 -125.1688385 55.93016052 C-121.59039114 55.92872773 -118.01278421 55.95809386 -114.43453193 55.99303031 C-110.6923041 56.02431738 -106.95005633 56.02722637 -103.2077179 56.03315735 C-96.12450541 56.048689 -89.04167945 56.08970789 -81.95863706 56.1399048 C-73.893433 56.1958197 -65.82821034 56.2232901 -57.76286066 56.24838197 C-41.17501428 56.30062466 -24.58755649 56.38855328 -8 56.5 C-8.00888245 55.85742249 -8.01776489 55.21484497 -8.0269165 54.55279541 C-8.11535648 47.86959725 -8.17572054 41.1865651 -8.21972656 34.50292969 C-8.23985164 32.00806935 -8.26715452 29.51325622 -8.30175781 27.01855469 C-8.35023457 23.43412632 -8.3729602 19.85032115 -8.390625 16.265625 C-8.41127014 15.14883362 -8.43191528 14.03204224 -8.45318604 12.88140869 C-8.45348816 11.84063171 -8.45379028 10.79985474 -8.45410156 9.72753906 C-8.46298401 8.81264709 -8.47186646 7.89775513 -8.48101807 6.95513916 C-7.59538012 2.43480082 -4.56848325 -0.07138255 0 0 Z " fill="#494F56" transform="translate(256,89.5) scale(0.5)" />
  <path d="M0 0 C1.09650375 -0.0004985 2.19300751 -0.00099701 3.32273865 -0.00151062 C5.6262291 0.00081607 7.92972277 0.01046075 10.2331543 0.02709961 C13.73965401 0.05073784 17.24539362 0.04764335 20.75195312 0.04101562 C23.00130657 0.04659218 25.25065685 0.05370191 27.5 0.0625 C28.53774063 0.06158859 29.57548126 0.06067719 30.64466858 0.05973816 C40.77714365 0.15748406 48.65210435 1.20751241 56.18359375 8.36328125 C62.50576069 16.18280352 62.53087086 24.57184392 62.49926758 34.21435547 C62.49611177 36.22679071 62.51960278 38.23774618 62.54492188 40.25 C62.54983946 50.11468061 61.88224335 58.41540786 54.921875 65.859375 C47.0246372 72.69181669 37.72422903 72.52633251 27.79296875 72.56640625 C26.14328094 72.57495636 26.14328094 72.57495636 24.46026611 72.5836792 C22.13709468 72.59310575 19.81391001 72.59965384 17.49072266 72.60351562 C13.95972028 72.61320952 10.42930318 72.64425126 6.8984375 72.67578125 C4.63411802 72.68231336 2.3697944 72.68756302 0.10546875 72.69140625 C-0.93965881 72.70375305 -1.98478638 72.71609985 -3.06158447 72.7288208 C-11.16325482 72.70452965 -19.9584387 71.90521212 -26.19140625 66.17578125 C-26.79726563 65.64597656 -27.403125 65.11617188 -28.02734375 64.5703125 C-32.68924095 58.81928211 -34.42989729 53.31223488 -34.34765625 45.98828125 C-34.35148315 45.2195166 -34.35531006 44.45075195 -34.35925293 43.65869141 C-34.36195568 42.04523395 -34.35471006 40.43173143 -34.33789062 38.81835938 C-34.31645441 36.36878446 -34.33774532 33.92214151 -34.36328125 31.47265625 C-34.36063768 29.89452487 -34.35551209 28.31639529 -34.34765625 26.73828125 C-34.35575317 26.01721191 -34.3638501 25.29614258 -34.37219238 24.55322266 C-34.25585586 18.1469084 -32.05179655 13.12091339 -28.02734375 8.15625 C-27.42148437 7.62644531 -26.815625 7.09664062 -26.19140625 6.55078125 C-25.60101563 6.00808594 -25.010625 5.46539062 -24.40234375 4.90625 C-16.80632409 0.37388178 -8.64187864 -0.0768449 0 0 Z " fill="#60BEC8" transform="translate(380.81640625,219.63671875) scale(0.5)" />
  <path d="M0 0 C1.09979187 -0.00570007 2.19958374 -0.01140015 3.33270264 -0.01727295 C5.65587407 -0.0266995 7.97905874 -0.03324759 10.30224609 -0.03710938 C13.83324847 -0.04680327 17.36366557 -0.07784501 20.89453125 -0.109375 C23.15885073 -0.11590711 25.42317435 -0.12115677 27.6875 -0.125 C28.73262756 -0.1373468 29.77775513 -0.1496936 30.85455322 -0.16241455 C38.95622357 -0.1381234 47.75140745 0.66119413 53.984375 6.390625 C54.59023437 6.92042969 55.19609375 7.45023438 55.8203125 7.99609375 C60.4822097 13.74712414 62.22286604 19.25417137 62.140625 26.578125 C62.14636536 27.73127197 62.14636536 27.73127197 62.15222168 28.90771484 C62.15492443 30.5211723 62.14767881 32.13467482 62.13085938 33.74804688 C62.10942316 36.19762179 62.13071407 38.64426474 62.15625 41.09375 C62.15360643 42.67188138 62.14848084 44.25001096 62.140625 45.828125 C62.14872192 46.54919434 62.15681885 47.27026367 62.16516113 48.01318359 C62.04882461 54.41949785 59.8447653 59.44549286 55.8203125 64.41015625 C55.21445313 64.93996094 54.60859375 65.46976562 53.984375 66.015625 C53.39398438 66.55832031 52.80359375 67.10101563 52.1953125 67.66015625 C44.59929284 72.19252447 36.43484739 72.64325115 27.79296875 72.56640625 C26.696465 72.56690475 25.59996124 72.56740326 24.4702301 72.56791687 C22.16673965 72.56559018 19.86324598 72.5559455 17.55981445 72.53930664 C14.05331474 72.51566841 10.54757513 72.5187629 7.04101562 72.52539062 C4.79166218 72.51981407 2.5423119 72.51270434 0.29296875 72.50390625 C-0.74477188 72.50481766 -1.78251251 72.50572906 -2.85169983 72.50666809 C-12.9841749 72.40892219 -20.8591356 71.35889384 -28.390625 64.203125 C-34.71279194 56.38360273 -34.73790211 47.99456233 -34.70629883 38.35205078 C-34.70314302 36.33961554 -34.72663403 34.32866007 -34.75195312 32.31640625 C-34.75687071 22.45172564 -34.0892746 14.15099839 -27.12890625 6.70703125 C-19.23166845 -0.12541044 -9.93126028 0.04007374 0 0 Z " fill="#EFCF4A" transform="translate(103.390625,219.796875) scale(0.5)" />
  <path d="M0 0 C1.74676025 -0.00430527 1.74676025 -0.00430527 3.52880859 -0.00869751 C5.97949716 -0.0107299 8.43020226 -0.00525814 10.88085938 0.00732422 C14.61365326 0.02338867 18.34536445 0.00744629 22.078125 -0.01171875 C24.46875237 -0.00973617 26.85937907 -0.0058922 29.25 0 C30.90974854 -0.00910904 30.90974854 -0.00910904 32.60302734 -0.0184021 C42.48440354 0.0704735 49.69692295 1.76556156 56.96484375 8.62890625 C63.76749511 15.87973229 62.9028983 24.36743224 62.97509766 33.67724609 C62.99158683 35.23078465 63.0187835 36.78424956 63.05712891 38.33740234 C63.30595273 48.4915779 63.18462179 57.50377259 55.81005859 65.32275391 C50.92978228 69.88625772 46.32033346 71.6364069 39.61645508 71.70483398 C38.42784378 71.72082138 37.23923248 71.73680878 36.01460266 71.75328064 C34.7374791 71.75864334 33.46035553 71.76400604 32.14453125 71.76953125 C30.80799771 71.77851036 29.47146511 71.78763242 28.13493347 71.79689026 C25.33496672 71.81335183 22.53511908 71.82107456 19.73510742 71.82397461 C16.17208009 71.82934092 12.61019596 71.86695774 9.04749012 71.91271877 C6.28568086 71.94268215 3.52413979 71.94970236 0.76218224 71.95070076 C-1.18194804 71.9568771 -3.12596089 71.98625247 -5.06987 72.01622009 C-12.84417279 71.97698795 -18.95259794 71.00857544 -25.375 66.3984375 C-33.22901322 58.21043737 -33.74806952 49.72913221 -33.74560547 38.82324219 C-33.74996087 36.66780475 -33.78628078 34.51444869 -33.82421875 32.359375 C-33.89950647 23.30385178 -33.20284696 15.43939227 -27.55078125 7.99609375 C-26.93589844 7.48949219 -26.32101562 6.98289062 -25.6875 6.4609375 C-24.78451172 5.67396484 -24.78451172 5.67396484 -23.86328125 4.87109375 C-16.25215305 0.36654849 -8.67614407 -0.04761645 0 0 Z " fill="#F4E1A1" transform="translate(180.4169921875,136.3583984375) scale(0.5)" />
</svg>
