<svg version="1.1" xmlns="http://www.w3.org/2000/svg" width="100" height="100" viewBox="0 0 512 512"><path d="M0 0 C0.66 -0.0103125 1.32 -0.020625 2 -0.03125 C4.91007786 0.74173943 6.09407191 2.20341319 8 4.5 C8.48101807 6.95513916 8.48101807 6.95513916 8.45410156 9.72753906 C8.45379944 10.76831604 8.45349731 11.80909302 8.45318604 12.88140869 C8.43254089 13.99820007 8.41189575 15.11499146 8.390625 16.265625 C8.38496521 17.41415955 8.37930542 18.56269409 8.37347412 19.74603271 C8.35108331 23.41444574 8.30087942 27.08188217 8.25 30.75 C8.22993861 33.23696506 8.21168722 35.72394543 8.1953125 38.2109375 C8.15120955 44.30762489 8.08426949 50.40374267 8 56.5 C8.68599116 56.49539104 9.37198233 56.49078207 10.0787611 56.48603344 C26.77086279 56.37560908 43.46284879 56.29287032 60.15523052 56.24093914 C68.22756251 56.21515801 76.29965068 56.18000954 84.37182617 56.12280273 C91.40759961 56.07296459 98.44319648 56.04070831 105.47914153 56.02955753 C109.20468206 56.02303933 112.92971744 56.00772264 116.65509605 55.97134972 C120.81415584 55.93107194 124.97233763 55.93005081 129.1315918 55.93237305 C130.36661438 55.91439667 131.60163696 55.89642029 132.87408447 55.87789917 C141.16257764 55.92812042 141.16257764 55.92812042 145.26483154 58.72956848 C147.07401239 61.61817081 147.62718799 63.02955795 147.63110352 66.39453125 C147.64363663 67.33901123 147.65616974 68.28349121 147.66908264 69.2565918 C147.64919533 70.76926636 147.64919533 70.76926636 147.62890625 72.3125 C147.63131821 73.35897705 147.63373016 74.4054541 147.63621521 75.48364258 C147.63523724 77.69258418 147.62185568 79.90155044 147.59692383 82.11035156 C147.56261701 85.4884785 147.5762684 88.86398895 147.59570312 92.2421875 C147.58880449 94.39063612 147.57913196 96.53907799 147.56640625 98.6875 C147.57136612 99.69594971 147.57632599 100.70439941 147.58143616 101.7434082 C147.50705623 106.17943179 147.4352826 108.78535776 145.08959961 112.63647461 C142.83165078 114.65013548 141.97923058 115.16141977 139 115.0625 C135.9627917 114.87020003 135.09529911 114.57086344 132.5625 112.6875 C124.86108119 101.90551366 130 83.93167383 130 73.5 C44.2 73.5 -41.6 73.5 -130 73.5 C-130 84.72 -130 95.94 -130 107.5 C-133 113.5 -133 113.5 -135 114.5 C-140.78551532 115.05988858 -140.78551532 115.05988858 -143 114.5 C-145.46020087 112.31831785 -146.82957957 110.50968955 -147.38378906 107.22616577 C-147.54672388 104.37297909 -147.58046208 101.54535716 -147.56640625 98.6875 C-147.57260483 97.64102295 -147.57880341 96.5945459 -147.58518982 95.51635742 C-147.59228254 93.30746388 -147.5891236 91.09851682 -147.57641602 88.88964844 C-147.56254668 85.51136921 -147.59663592 82.13585805 -147.63476562 78.7578125 C-147.63571681 76.60937432 -147.63385803 74.46093268 -147.62890625 72.3125 C-147.64216446 71.30405029 -147.65542267 70.29560059 -147.66908264 69.2565918 C-147.65654953 68.31211182 -147.64401642 67.36763184 -147.63110352 66.39453125 C-147.63014175 65.56800049 -147.62917999 64.74146973 -147.62818909 63.88989258 C-146.60807845 60.00896742 -145.33792641 58.7794853 -142 56.5 C-137.71205935 55.77077135 -133.47118903 55.86920801 -129.1315918 55.93237305 C-127.82388321 55.93164291 -126.51617462 55.93091278 -125.1688385 55.93016052 C-121.59039114 55.92872773 -118.01278421 55.95809386 -114.43453193 55.99303031 C-110.6923041 56.02431738 -106.95005633 56.02722637 -103.2077179 56.03315735 C-96.12450541 56.048689 -89.04167945 56.08970789 -81.95863706 56.1399048 C-73.893433 56.1958197 -65.82821034 56.2232901 -57.76286066 56.24838197 C-41.17501428 56.30062466 -24.58755649 56.38855328 -8 56.5 C-8.00888245 55.85742249 -8.01776489 55.21484497 -8.0269165 54.55279541 C-8.11535648 47.86959725 -8.17572054 41.1865651 -8.21972656 34.50292969 C-8.23985164 32.00806935 -8.26715452 29.51325622 -8.30175781 27.01855469 C-8.35023457 23.43412632 -8.3729602 19.85032115 -8.390625 16.265625 C-8.41127014 15.14883362 -8.43191528 14.03204224 -8.45318604 12.88140869 C-8.45348816 11.84063171 -8.45379028 10.79985474 -8.45410156 9.72753906 C-8.46298401 8.81264709 -8.47186646 7.89775513 -8.48101807 6.95513916 C-7.59538012 2.43480082 -4.56848325 -0.07138255 0 0 Z " fill="#494F56" transform="translate(256,89.5)" /><path d="M0 0 C1.09650375 -0.0004985 2.19300751 -0.00099701 3.32273865 -0.00151062 C5.6262291 0.00081607 7.92972277 0.01046075 10.2331543 0.02709961 C13.73965401 0.05073784 17.24539362 0.04764335 20.75195312 0.04101562 C23.00130657 0.04659218 25.25065685 0.05370191 27.5 0.0625 C28.53774063 0.06158859 29.57548126 0.06067719 30.64466858 0.05973816 C40.77714365 0.15748406 48.65210435 1.20751241 56.18359375 8.36328125 C62.50576069 16.18280352 62.53087086 24.57184392 62.49926758 34.21435547 C62.49611177 36.22679071 62.51960278 38.23774618 62.54492188 40.25 C62.54983946 50.11468061 61.88224335 58.41540786 54.921875 65.859375 C47.0246372 72.69181669 37.72422903 72.52633251 27.79296875 72.56640625 C26.14328094 72.57495636 26.14328094 72.57495636 24.46026611 72.5836792 C22.13709468 72.59310575 19.81391001 72.59965384 17.49072266 72.60351562 C13.95972028 72.61320952 10.42930318 72.64425126 6.8984375 72.67578125 C4.63411802 72.68231336 2.3697944 72.68756302 0.10546875 72.69140625 C-0.93965881 72.70375305 -1.98478638 72.71609985 -3.06158447 72.7288208 C-11.16325482 72.70452965 -19.9584387 71.90521212 -26.19140625 66.17578125 C-26.79726563 65.64597656 -27.403125 65.11617188 -28.02734375 64.5703125 C-32.68924095 58.81928211 -34.42989729 53.31223488 -34.34765625 45.98828125 C-34.35148315 45.2195166 -34.35531006 44.45075195 -34.35925293 43.65869141 C-34.36195568 42.04523395 -34.35471006 40.43173143 -34.33789062 38.81835938 C-34.31645441 36.36878446 -34.33774532 33.92214151 -34.36328125 31.47265625 C-34.36063768 29.89452487 -34.35551209 28.31639529 -34.34765625 26.73828125 C-34.35575317 26.01721191 -34.3638501 25.29614258 -34.37219238 24.55322266 C-34.25585586 18.1469084 -32.05179655 13.12091339 -28.02734375 8.15625 C-27.42148437 7.62644531 -26.815625 7.09664062 -26.19140625 6.55078125 C-25.60101563 6.00808594 -25.010625 5.46539062 -24.40234375 4.90625 C-16.80632409 0.37388178 -8.64187864 -0.0768449 0 0 Z " fill="#60BEC8" transform="translate(380.81640625,219.63671875)" /><path d="M0 0 C1.09979187 -0.00570007 2.19958374 -0.01140015 3.33270264 -0.01727295 C5.65587407 -0.0266995 7.97905874 -0.03324759 10.30224609 -0.03710938 C13.83324847 -0.04680327 17.36366557 -0.07784501 20.89453125 -0.109375 C23.15885073 -0.11590711 25.42317435 -0.12115677 27.6875 -0.125 C28.73262756 -0.1373468 29.77775513 -0.1496936 30.85455322 -0.16241455 C38.95622357 -0.1381234 47.75140745 0.66119413 53.984375 6.390625 C54.59023437 6.92042969 55.19609375 7.45023438 55.8203125 7.99609375 C60.4822097 13.74712414 62.22286604 19.25417137 62.140625 26.578125 C62.14636536 27.73127197 62.14636536 27.73127197 62.15222168 28.90771484 C62.15492443 30.5211723 62.14767881 32.13467482 62.13085938 33.74804688 C62.10942316 36.19762179 62.13071407 38.64426474 62.15625 41.09375 C62.15360643 42.67188138 62.14848084 44.25001096 62.140625 45.828125 C62.14872192 46.54919434 62.15681885 47.27026367 62.16516113 48.01318359 C62.04882461 54.41949785 59.8447653 59.44549286 55.8203125 64.41015625 C55.21445313 64.93996094 54.60859375 65.46976562 53.984375 66.015625 C53.39398438 66.55832031 52.80359375 67.10101563 52.1953125 67.66015625 C44.59929284 72.19252447 36.43484739 72.64325115 27.79296875 72.56640625 C26.696465 72.56690475 25.59996124 72.56740326 24.4702301 72.56791687 C22.16673965 72.56559018 19.86324598 72.5559455 17.55981445 72.53930664 C14.05331474 72.51566841 10.54757513 72.5187629 7.04101562 72.52539062 C4.79166218 72.51981407 2.5423119 72.51270434 0.29296875 72.50390625 C-0.74477188 72.50481766 -1.78251251 72.50572906 -2.85169983 72.50666809 C-12.9841749 72.40892219 -20.8591356 71.35889384 -28.390625 64.203125 C-34.71279194 56.38360273 -34.73790211 47.99456233 -34.70629883 38.35205078 C-34.70314302 36.33961554 -34.72663403 34.32866007 -34.75195312 32.31640625 C-34.75687071 22.45172564 -34.0892746 14.15099839 -27.12890625 6.70703125 C-19.23166845 -0.12541044 -9.93126028 0.04007374 0 0 Z " fill="#EFCF4A" transform="translate(103.390625,219.796875)" /><path d="M0 0 C1.74676025 -0.00430527 1.74676025 -0.00430527 3.52880859 -0.00869751 C5.97949716 -0.0107299 8.43020226 -0.00525814 10.88085938 0.00732422 C14.61365326 0.02338867 18.34536445 0.00744629 22.078125 -0.01171875 C24.46875237 -0.00973617 26.85937907 -0.0058922 29.25 0 C30.90974854 -0.00910904 30.90974854 -0.00910904 32.60302734 -0.0184021 C42.48440354 0.0704735 49.69692295 1.76556156 56.96484375 8.62890625 C63.76749511 15.87973229 62.9028983 24.36743224 62.97509766 33.67724609 C62.99158683 35.23078465 63.0187835 36.78424956 63.05712891 38.33740234 C63.30595273 48.4915779 63.18462179 57.50377259 55.81005859 65.32275391 C50.92978228 69.88625772 46.32033346 71.6364069 39.61645508 71.70483398 C38.42784378 71.72082138 37.23923248 71.73680878 36.01460266 71.75328064 C34.7374791 71.75864334 33.46035553 71.76400604 32.14453125 71.76953125 C30.80799771 71.77851036 29.47146511 71.78763242 28.13493347 71.79689026 C25.33496672 71.81335183 22.53511908 71.82107456 19.73510742 71.82397461 C16.17208009 71.82934092 12.61019596 71.86695774 9.04749012 71.91271877 C6.28568086 71.94268215 3.52413979 71.94970236 0.76218224 71.95070076 C-1.18194804 71.9568771 -3.12596089 71.98625247 -5.06987 72.01622009 C-12.84417279 71.97698795 -18.95259794 71.00857544 -25.375 66.3984375 C-33.22901322 58.21043737 -33.74806952 49.72913221 -33.74560547 38.82324219 C-33.74996087 36.66780475 -33.78628078 34.51444869 -33.82421875 32.359375 C-33.89950647 23.30385178 -33.20284696 15.43939227 -27.55078125 7.99609375 C-26.93589844 7.48949219 -26.32101562 6.98289062 -25.6875 6.4609375 C-24.78451172 5.67396484 -24.78451172 5.67396484 -23.86328125 4.87109375 C-16.25215305 0.36654849 -8.67614407 -0.04761645 0 0 Z " fill="#60BEC8" transform="translate(449.375,440.6015625)" /><path d="M0 0 C1.04523834 -0.01283524 2.09047668 -0.02567047 3.16738892 -0.03889465 C4.28825897 -0.04628159 5.40912903 -0.05366852 6.56396484 -0.0612793 C7.72938812 -0.06935104 8.8948114 -0.07742279 10.09555054 -0.08573914 C12.56173221 -0.09955704 15.02793282 -0.11028943 17.49414062 -0.11816406 C20.00396366 -0.12967106 22.51376247 -0.1501023 25.0234375 -0.1796875 C28.66211474 -0.22256592 32.30006563 -0.23856286 35.93896484 -0.2487793 C37.04768951 -0.26628738 38.15641418 -0.28379547 39.29873657 -0.30183411 C47.34127464 -0.27972354 55.54106388 0.65380831 61.86196899 6.07377625 C69.7434763 14.24310311 70.16137051 23.12613988 70.09594727 33.95800781 C70.08743266 36.10685 70.11626937 38.25303024 70.14794922 40.40161133 C70.18662507 48.11967961 69.72674678 54.48065545 65.64990234 61.17700195 C65.11365234 62.08450195 64.57740234 62.99200195 64.02490234 63.92700195 C56.29944569 71.24585563 47.83702388 71.91371818 37.61083984 71.8059082 C36.27666023 71.8067392 34.94248074 71.80920724 33.60830688 71.81321716 C30.8295361 71.81605638 28.05157975 71.80155773 25.27294922 71.77392578 C21.73119667 71.73977735 18.1908916 71.74590026 14.64906883 71.76458836 C11.24035158 71.77775884 7.83204702 71.7594282 4.42333984 71.7434082 C2.53088028 71.75084801 2.53088028 71.75084801 0.60018921 71.75843811 C-7.42511578 71.65149344 -13.03688272 70.81230492 -19.33837891 65.5012207 C-19.77537109 64.96110352 -20.21236328 64.42098633 -20.66259766 63.86450195 C-21.11248047 63.33211914 -21.56236328 62.79973633 -22.02587891 62.2512207 C-25.57671035 56.68929889 -26.80691259 51.89793995 -26.74853516 45.3371582 C-26.75140533 44.6113707 -26.75427551 43.88558319 -26.75723267 43.13780212 C-26.75926151 41.61253066 -26.75381473 40.08723246 -26.74121094 38.56201172 C-26.72516236 36.24882798 -26.74108636 33.93739725 -26.76025391 31.62426758 C-26.78502835 15.87612022 -26.78502835 15.87612022 -21.73681641 8.9699707 C-15.11765866 2.71600786 -9.13423416 0.09827 0 0 Z " fill="#EFCF4A" transform="translate(26.35009765625,440.822998046875)" /><path d="M0 0 C1.30525635 -0.00287018 2.6105127 -0.00574036 3.95532227 -0.00869751 C6.70893084 -0.01310267 9.46224604 -0.00674881 12.21582031 0.00732422 C15.72951109 0.02441554 19.24251421 0.01456454 22.75617981 -0.00339317 C26.12917367 -0.01689577 29.50198666 -0.00741705 32.875 0 C34.12933838 -0.00607269 35.38367676 -0.01214539 36.67602539 -0.0184021 C45.14360743 0.04956497 51.51236939 0.8501313 58.03027344 6.80102539 C64.84808838 14.54026258 65.22745808 23.31822329 65.08935547 33.12988281 C65.06253382 35.39558045 65.08920536 37.65632733 65.12109375 39.921875 C65.14352882 49.21872584 64.13577274 56.91269948 57.88037109 64.21655273 C50.34849902 71.42147161 41.06913348 71.85854351 31.1328125 71.83203125 C29.39316727 71.83989403 29.39316727 71.83989403 27.61837769 71.84791565 C25.17609453 71.85431132 22.73378047 71.85303087 20.29150391 71.84448242 C16.58048934 71.83597872 12.87101894 71.86476129 9.16015625 71.89648438 C6.77604212 71.89809693 4.3919253 71.89751782 2.0078125 71.89453125 C0.91163605 71.90576523 -0.18454041 71.91699921 -1.31393433 71.92857361 C-9.29904484 71.85731691 -17.53677072 70.90231504 -23.77511597 65.47264099 C-29.58094244 59.34420252 -32.02875242 53.01395469 -32.03125 44.62890625 C-32.04267029 43.54734001 -32.04267029 43.54734001 -32.05432129 42.44392395 C-32.06506177 40.92708777 -32.06800018 39.41017801 -32.06347656 37.89331055 C-32.06250655 35.6014134 -32.10413996 33.31289752 -32.1484375 31.02148438 C-32.22313618 21.84620388 -31.47949912 13.97547084 -25.15478516 6.80175781 C-17.57678742 -0.1230947 -9.73507644 -0.04713093 0 0 Z " fill="#FC6947" transform="translate(239.5625,-0.3984375)" /><path d="M0 0 C1.03167297 -0.00960754 2.06334595 -0.01921509 3.12628174 -0.02911377 C4.23155212 -0.03336365 5.33682251 -0.03761353 6.47558594 -0.04199219 C7.62355652 -0.04769226 8.7715271 -0.05339233 9.95428467 -0.05926514 C12.38178591 -0.06870169 14.80929989 -0.07524377 17.23681641 -0.07910156 C20.9325216 -0.08879522 24.62766769 -0.11982741 28.32324219 -0.15136719 C30.68652015 -0.15789901 33.04980207 -0.16314878 35.41308594 -0.16699219 C37.05884613 -0.18551239 37.05884613 -0.18551239 38.737854 -0.20440674 C47.69146214 -0.1786755 55.68050115 1.24999618 62.70996094 7.16113281 C67.33424108 13.35190352 68.8719333 18.33243561 68.94824219 26.04785156 C68.95631393 26.82369095 68.96438568 27.59953033 68.97270203 28.39888 C68.98652724 30.0421832 68.99725638 31.68551492 69.00512695 33.32885742 C69.01662196 34.99984217 69.0370345 36.67079091 69.06665039 38.34155273 C69.10959169 40.76473772 69.12553391 43.18683198 69.13574219 45.61035156 C69.15325027 46.34710617 69.17075836 47.08386078 69.188797 47.84294128 C69.16193778 54.36557151 67.04859117 59.49239772 62.74511719 64.40332031 C62.09414063 64.94214844 61.44316406 65.48097656 60.77246094 66.03613281 C60.1240625 66.59042969 59.47566406 67.14472656 58.80761719 67.71582031 C54.5371901 70.65820024 50.8108923 71.41427597 45.66967773 71.45166016 C44.47461105 71.46441986 43.27954437 71.47717957 42.04826355 71.49032593 C40.76486588 71.49255157 39.4814682 71.49477722 38.15917969 71.49707031 C36.81785441 71.50350472 35.47653052 71.51023355 34.13520813 71.51724243 C31.32684072 71.5291956 28.51859612 71.53292538 25.71020508 71.53173828 C22.1292046 71.53153539 18.54900041 71.55881383 14.96818829 71.5932827 C12.19788571 71.61563325 9.42777216 71.61957333 6.65738869 71.61851883 C4.70103186 71.62199593 2.74473404 71.64360951 0.78849792 71.6656189 C-7.89810464 71.62124373 -13.26191937 70.54841528 -20.04003906 64.84863281 C-27.5329297 55.89879122 -27.49139845 47.15927402 -27.54003906 35.91113281 C-27.56066406 34.73421875 -27.58128906 33.55730469 -27.60253906 32.34472656 C-27.64512972 22.77247654 -26.88031797 13.85274539 -20.03222656 6.62988281 C-14.13998135 1.66242945 -7.58517824 0.05733662 0 0 Z " fill="#60BEC8" transform="translate(304.2900390625,440.8388671875)" /><path d="M0 0 C1.02844528 -0.00960754 2.05689056 -0.01921509 3.11650085 -0.02911377 C4.76970085 -0.03548859 4.76970085 -0.03548859 6.45629883 -0.04199219 C7.60189774 -0.04769226 8.74749664 -0.05339233 9.92781067 -0.05926514 C12.35111573 -0.0687024 14.77443354 -0.07524405 17.19775391 -0.07910156 C20.88247426 -0.08878609 24.56663165 -0.11981387 28.2512207 -0.15136719 C30.61124345 -0.15789996 32.97127017 -0.16314935 35.33129883 -0.16699219 C36.96931709 -0.18551239 36.96931709 -0.18551239 38.64042664 -0.20440674 C47.79550139 -0.17809461 56.37789823 0.89670214 63.25708008 7.41894531 C70.2547383 15.71935905 69.90782441 25.13950309 69.91333008 35.47363281 C69.92557617 36.67181641 69.93782227 37.87 69.95043945 39.10449219 C69.96653072 48.83971019 69.29134345 57.47948217 62.72583008 65.16113281 C57.3905406 69.37100967 52.73101243 71.27438322 45.91259766 71.33813477 C44.71737991 71.35097 43.52216217 71.36380524 42.29072571 71.37702942 C40.99700546 71.38441635 39.70328522 71.39180328 38.37036133 71.39941406 C37.37998651 71.40552735 37.37998651 71.40552735 36.36960411 71.41176414 C32.87205699 71.43261002 29.37454888 71.44691575 25.87695312 71.45629883 C22.28024834 71.46733539 18.68416698 71.50170645 15.08768177 71.54147053 C12.30882186 71.5677355 9.53010797 71.57599952 6.75113487 71.57958031 C4.785889 71.58676588 2.82074334 71.61316555 0.85566711 71.63996887 C-7.45697932 71.61988659 -13.08846408 70.82909456 -19.51635742 65.19628906 C-20.05518555 64.5453125 -20.59401367 63.89433594 -21.14916992 63.22363281 C-21.7034668 62.57523437 -22.25776367 61.92683594 -22.82885742 61.25878906 C-26.17829446 56.39757909 -26.59263717 51.86068778 -26.61010742 46.07910156 C-26.61676422 45.30609207 -26.62342102 44.53308258 -26.63027954 43.73664856 C-26.64037543 42.10529956 -26.64509751 40.47390951 -26.64477539 38.8425293 C-26.64913818 36.36664502 -26.68545837 33.8925603 -26.72338867 31.41699219 C-26.72925989 29.82520135 -26.73322724 28.23340212 -26.73510742 26.64160156 C-26.74947845 25.91112106 -26.76384949 25.18064056 -26.77865601 24.42802429 C-26.71912372 17.6168391 -24.316472 12.58981637 -19.96166992 7.41113281 C-13.76754025 2.22534983 -8.08226329 0.06129879 0 0 Z " fill="#EFCF4A" transform="translate(165.274169921875,440.8388671875)" /><path d="M0 0 C2.57859083 2.21103247 3.86018414 4.0299214 4.34945679 7.42462158 C4.46359284 10.50546277 4.44902093 13.56209517 4.390625 16.64453125 C4.38496521 17.7694548 4.37930542 18.89437836 4.37347412 20.0533905 C4.35111468 23.64019634 4.30091667 27.22599696 4.25 30.8125 C4.22993455 33.24673035 4.21168386 35.68097638 4.1953125 38.11523438 C4.15125123 44.07716489 4.08434243 50.03851062 4 56 C4.79069382 55.99111755 5.58138763 55.98223511 6.39604187 55.9730835 C13.85553498 55.89286273 21.31481831 55.83199798 28.77463055 55.79275131 C32.60962547 55.77189562 36.44426331 55.74361585 40.27905273 55.69824219 C43.98139253 55.65471092 47.68338934 55.63084771 51.38596535 55.62049103 C52.79696869 55.61311258 54.20795372 55.59870386 55.61881065 55.57707977 C57.59814448 55.54795521 59.57782502 55.54636533 61.55737305 55.54589844 C62.68322311 55.53701599 63.80907318 55.52813354 64.96903992 55.51898193 C68.75284077 56.119477 70.39328325 57.21502966 73 60 C73.62818909 62.35229492 73.62818909 62.35229492 73.63110352 64.98046875 C73.64363663 65.96829346 73.65616974 66.95611816 73.66908264 67.97387695 C73.65582443 69.03437256 73.64256622 70.09486816 73.62890625 71.1875 C73.63131821 72.28215576 73.63373016 73.37681152 73.63621521 74.50463867 C73.63523616 76.81790796 73.62182908 79.13120051 73.59692383 81.44433594 C73.56262453 84.98713698 73.57626115 88.5274434 73.59570312 92.0703125 C73.58880463 94.31771896 73.57913223 96.56511898 73.56640625 98.8125 C73.57136612 99.87299561 73.57632599 100.93349121 73.58143616 102.02612305 C73.4639832 109.35249885 73.4639832 109.35249885 71.08959961 112.66601562 C68.83801723 114.10340856 67.65191863 114.54143623 65 114.5 C64.01 114.51546875 64.01 114.51546875 63 114.53125 C61 114 61 114 57 110 C57 97.79 57 85.58 57 73 C16.74 73 -23.52 73 -65 73 C-65 84.22 -65 95.44 -65 107 C-68 113 -68 113 -70 114 C-75.78551532 114.55988858 -75.78551532 114.55988858 -78 114 C-80.44539456 111.82489486 -81.8323835 110.03465622 -82.3631897 106.75811768 C-82.4966343 103.95461886 -82.50168784 101.17751314 -82.4609375 98.37109375 C-82.46002106 97.34444107 -82.45910461 96.31778839 -82.4581604 95.26002502 C-82.45212894 93.09395716 -82.4363967 90.92789746 -82.41162109 88.76196289 C-82.37509158 85.44581395 -82.37060204 82.13078237 -82.37109375 78.81445312 C-82.36126302 76.70832367 -82.34960621 74.60220179 -82.3359375 72.49609375 C-82.33371185 71.50435654 -82.33148621 70.51261932 -82.32919312 69.49082947 C-82.31643341 68.56629471 -82.30367371 67.64175995 -82.29052734 66.68920898 C-82.28290375 65.8782225 -82.27528015 65.06723602 -82.26742554 64.23167419 C-81.96524388 61.7099591 -81.36438136 60.13747857 -80 58 C-76.45412059 55.6360804 -74.98496318 55.75644415 -70.78442383 55.77294922 C-68.86277153 55.77317581 -68.86277153 55.77317581 -66.90229797 55.77340698 C-65.50387416 55.78362027 -64.10545192 55.79405226 -62.70703125 55.8046875 C-61.27642515 55.80841822 -59.84581648 55.81126491 -58.41520691 55.81326294 C-54.65207856 55.82089478 -50.88910489 55.84053931 -47.1260376 55.8626709 C-43.28521822 55.88313906 -39.44437383 55.89226673 -35.60351562 55.90234375 C-28.06893994 55.92378571 -20.53449166 55.95791613 -13 56 C-13.00999275 55.09917191 -13.00999275 55.09917191 -13.02018738 54.18014526 C-13.08666078 47.91832849 -13.13185047 41.6566123 -13.16479492 35.39453125 C-13.17986261 33.05887784 -13.20032049 30.72325263 -13.22631836 28.38769531 C-13.26278958 25.02662181 -13.2797469 21.66592308 -13.29296875 18.3046875 C-13.30845261 17.26384003 -13.32393646 16.22299255 -13.33988953 15.15060425 C-13.34114893 9.70061358 -13.17998489 5.662947 -10 1 C-6.86599115 -0.56700442 -3.36844905 -0.85164561 0 0 Z " fill="#494F56" transform="translate(399,309)" /><path d="M0 0 C2.91650475 0.65875877 4.19621061 2.04110111 5.90234375 4.4296875 C6.87873806 7.35887043 7.02370556 9.21994488 7.01586914 12.26831055 C7.01575584 13.73949593 7.01575584 13.73949593 7.01564026 15.24040222 C7.01047897 16.29673355 7.00531769 17.35306488 7 18.44140625 C6.99858505 19.52476761 6.9971701 20.60812897 6.99571228 21.72431946 C6.99010934 25.18863675 6.97755633 28.6528897 6.96484375 32.1171875 C6.95982913 34.46419178 6.95526616 36.81119706 6.95117188 39.15820312 C6.94013896 44.91538658 6.92339795 50.67253244 6.90234375 56.4296875 C7.69525818 56.42080505 8.48817261 56.41192261 9.30511475 56.402771 C16.77963559 56.32260415 24.25394783 56.26171288 31.72878647 56.22243881 C35.57165627 56.20156866 39.41417068 56.17326244 43.25683594 56.12792969 C46.9656549 56.08445005 50.67413217 56.06054608 54.38318634 56.05017853 C55.7978071 56.04279083 57.21240927 56.02836407 58.62688446 56.00676727 C60.60881798 55.97771135 62.59109575 55.97605342 64.57324219 55.97558594 C65.70131287 55.96670349 66.82938354 55.95782104 67.99163818 55.94866943 C71.5555935 56.5376424 72.68591486 57.6419262 74.90234375 60.4296875 C76.08315181 62.79130362 76.0475407 64.25733407 76.0793457 66.8918457 C76.09859856 68.27887444 76.09859856 68.27887444 76.11824036 69.69392395 C76.12562729 70.69598373 76.13301422 71.69804352 76.140625 72.73046875 C76.14869675 73.7589946 76.15676849 74.78752045 76.16508484 75.84721375 C76.17893142 78.02695018 76.189651 80.20670836 76.19750977 82.38647461 C76.21472064 85.71835477 76.2586021 89.04924236 76.30273438 92.38085938 C76.31286131 94.49738853 76.32137741 96.61392613 76.328125 98.73046875 C76.34563309 99.72645584 76.36314117 100.72244293 76.38117981 101.74861145 C76.36732287 106.17317244 76.33827079 108.71230237 74.00073242 112.55908203 C71.73730153 114.57681414 70.88739749 115.09130061 67.90234375 114.9921875 C64.86513545 114.79988753 63.99764286 114.50055094 61.46484375 112.6171875 C53.76342494 101.83520116 58.90234375 83.86136133 58.90234375 73.4296875 C18.64234375 73.4296875 -21.61765625 73.4296875 -63.09765625 73.4296875 C-63.09765625 85.6396875 -63.09765625 97.8496875 -63.09765625 110.4296875 C-67.09765625 114.4296875 -67.09765625 114.4296875 -69.09765625 114.9609375 C-70.08765625 114.94546875 -70.08765625 114.94546875 -71.09765625 114.9296875 C-71.75765625 114.94 -72.41765625 114.9503125 -73.09765625 114.9609375 C-76.25141095 114.12322141 -77.17100869 113.1183765 -79.09765625 110.4296875 C-79.72765578 106.70785955 -79.68168292 103.00970066 -79.6640625 99.2421875 C-79.67026108 98.14753174 -79.67645966 97.05287598 -79.68284607 95.92504883 C-79.68994659 93.61182546 -79.68676626 91.298551 -79.67407227 88.98535156 C-79.66020602 85.44240503 -79.6942778 81.90209844 -79.73242188 78.359375 C-79.73337304 76.11197852 -79.73151439 73.86457873 -79.7265625 71.6171875 C-79.73982071 70.55669189 -79.75307892 69.49619629 -79.76673889 68.40356445 C-79.75420578 67.41573975 -79.74167267 66.42791504 -79.72875977 65.41015625 C-79.72731712 64.10921021 -79.72731712 64.10921021 -79.72584534 62.78198242 C-78.79305286 59.28908029 -77.15279264 58.26188362 -74.09765625 56.4296875 C-71.06669617 55.94866943 -71.06669617 55.94866943 -67.6550293 55.97558594 C-66.37407883 55.97588806 -65.09312836 55.97619019 -63.77336121 55.97650146 C-62.38535941 55.99692497 -60.99736403 56.0177889 -59.609375 56.0390625 C-58.18163344 56.04652847 -56.75388159 56.05221972 -55.3261261 56.05621338 C-51.57924814 56.07144203 -47.83299634 56.11069873 -44.08636475 56.1550293 C-40.25883453 56.19604254 -36.43120253 56.21423723 -32.60351562 56.234375 C-25.1012779 56.27719673 -17.59955501 56.34541314 -10.09765625 56.4296875 C-10.1065387 55.80185867 -10.11542114 55.17402985 -10.12457275 54.5271759 C-10.2131008 47.98980823 -10.27341337 41.45261098 -10.31738281 34.91479492 C-10.33749189 32.47527143 -10.36478308 30.0357961 -10.39941406 27.59643555 C-10.44796114 24.08890902 -10.47063257 20.58202007 -10.48828125 17.07421875 C-10.50892639 15.98446243 -10.52957153 14.89470612 -10.55084229 13.77192688 C-10.55308531 6.19419952 -10.55308531 6.19419952 -8.19824219 2.24121094 C-5.287415 -0.26905612 -3.69384741 -0.23387488 0 0 Z " fill="#494F56" transform="translate(119.09765625,308.5703125)" /></svg>